<mxfile host="app.diagrams.net" modified="2023-03-01T20:04:45.572Z" agent="5.0 (Macintosh; Intel Mac OS X 10_15_7) AppleWebKit/537.36 (KHTML, like Gecko) Chrome/110.0.0.0 Safari/537.36" etag="U85L9oa3zazntSUH6wRu" version="20.8.23" type="github">
  <diagram name="Page-1" id="my01R8dfBdF1uQlSD4Y0">
    <mxGraphModel dx="1428" dy="714" grid="1" gridSize="10" guides="1" tooltips="1" connect="1" arrows="1" fold="1" page="1" pageScale="1" pageWidth="850" pageHeight="1100" math="0" shadow="0">
      <root>
        <mxCell id="0" />
        <mxCell id="1" parent="0" />
        <mxCell id="XsQoimjce_yVpQ9bQ-w0-26" style="edgeStyle=orthogonalEdgeStyle;rounded=0;orthogonalLoop=1;jettySize=auto;html=1;" edge="1" parent="1">
          <mxGeometry relative="1" as="geometry">
            <mxPoint x="34.5" y="384.83" as="targetPoint" />
            <mxPoint x="34.5" y="324.83" as="sourcePoint" />
          </mxGeometry>
        </mxCell>
        <mxCell id="XsQoimjce_yVpQ9bQ-w0-3" value="" style="rounded=1;whiteSpace=wrap;html=1;arcSize=17;" vertex="1" parent="1">
          <mxGeometry x="190" y="215" width="541.25" height="600" as="geometry" />
        </mxCell>
        <mxCell id="XsQoimjce_yVpQ9bQ-w0-27" style="edgeStyle=orthogonalEdgeStyle;rounded=0;orthogonalLoop=1;jettySize=auto;html=1;exitX=1;exitY=0.5;exitDx=0;exitDy=0;exitPerimeter=0;" edge="1" parent="1" source="XsQoimjce_yVpQ9bQ-w0-6" target="XsQoimjce_yVpQ9bQ-w0-7">
          <mxGeometry relative="1" as="geometry">
            <mxPoint x="70" y="430" as="targetPoint" />
          </mxGeometry>
        </mxCell>
        <mxCell id="XsQoimjce_yVpQ9bQ-w0-6" value="" style="verticalLabelPosition=bottom;html=1;verticalAlign=top;align=center;strokeColor=none;fillColor=#00BEF2;shape=mxgraph.azure.github_code;pointerEvents=1;" vertex="1" parent="1">
          <mxGeometry x="10" y="390" width="50" height="50" as="geometry" />
        </mxCell>
        <mxCell id="XsQoimjce_yVpQ9bQ-w0-31" style="edgeStyle=orthogonalEdgeStyle;rounded=0;orthogonalLoop=1;jettySize=auto;html=1;entryX=0;entryY=0.5;entryDx=0;entryDy=0;entryPerimeter=0;" edge="1" parent="1" source="XsQoimjce_yVpQ9bQ-w0-7" target="XsQoimjce_yVpQ9bQ-w0-11">
          <mxGeometry relative="1" as="geometry" />
        </mxCell>
        <mxCell id="XsQoimjce_yVpQ9bQ-w0-7" value="" style="dashed=0;outlineConnect=0;html=1;align=center;labelPosition=center;verticalLabelPosition=bottom;verticalAlign=top;shape=mxgraph.webicons.github;gradientColor=#DFDEDE" vertex="1" parent="1">
          <mxGeometry x="110" y="388.5" width="60" height="53" as="geometry" />
        </mxCell>
        <mxCell id="XsQoimjce_yVpQ9bQ-w0-8" value="&lt;font style=&quot;font-size: 10px;&quot;&gt;GH Actions (CI/CD)&amp;nbsp;&lt;br&gt;&lt;br&gt;&lt;/font&gt;" style="text;strokeColor=none;align=center;fillColor=none;html=1;verticalAlign=middle;whiteSpace=wrap;rounded=0;" vertex="1" parent="1">
          <mxGeometry x="110" y="450" width="60" height="30" as="geometry" />
        </mxCell>
        <mxCell id="XsQoimjce_yVpQ9bQ-w0-67" value="" style="edgeStyle=none;rounded=0;orthogonalLoop=1;jettySize=auto;html=1;fontSize=10;startArrow=classic;startFill=1;" edge="1" parent="1" source="XsQoimjce_yVpQ9bQ-w0-11" target="XsQoimjce_yVpQ9bQ-w0-12">
          <mxGeometry relative="1" as="geometry" />
        </mxCell>
        <mxCell id="XsQoimjce_yVpQ9bQ-w0-11" value="" style="outlineConnect=0;dashed=0;verticalLabelPosition=bottom;verticalAlign=top;align=center;html=1;shape=mxgraph.aws3.s3;fillColor=#E05243;gradientColor=none;" vertex="1" parent="1">
          <mxGeometry x="280" y="266.5" width="60" height="67" as="geometry" />
        </mxCell>
        <mxCell id="XsQoimjce_yVpQ9bQ-w0-12" value="" style="outlineConnect=0;dashed=0;verticalLabelPosition=bottom;verticalAlign=top;align=center;html=1;shape=mxgraph.aws3.cloudfront;fillColor=#F58536;gradientColor=none;" vertex="1" parent="1">
          <mxGeometry x="430.63" y="270" width="60" height="60" as="geometry" />
        </mxCell>
        <mxCell id="XsQoimjce_yVpQ9bQ-w0-69" value="" style="edgeStyle=none;rounded=0;orthogonalLoop=1;jettySize=auto;html=1;fontSize=10;startArrow=classic;startFill=1;" edge="1" parent="1" source="XsQoimjce_yVpQ9bQ-w0-13" target="XsQoimjce_yVpQ9bQ-w0-12">
          <mxGeometry relative="1" as="geometry" />
        </mxCell>
        <mxCell id="XsQoimjce_yVpQ9bQ-w0-13" value="" style="sketch=0;points=[[0,0,0],[0.25,0,0],[0.5,0,0],[0.75,0,0],[1,0,0],[0,1,0],[0.25,1,0],[0.5,1,0],[0.75,1,0],[1,1,0],[0,0.25,0],[0,0.5,0],[0,0.75,0],[1,0.25,0],[1,0.5,0],[1,0.75,0]];outlineConnect=0;fontColor=#232F3E;gradientColor=#945DF2;gradientDirection=north;fillColor=#5A30B5;strokeColor=#ffffff;dashed=0;verticalLabelPosition=bottom;verticalAlign=top;align=center;html=1;fontSize=12;fontStyle=0;aspect=fixed;shape=mxgraph.aws4.resourceIcon;resIcon=mxgraph.aws4.route_53;" vertex="1" parent="1">
          <mxGeometry x="590" y="270" width="58" height="58" as="geometry" />
        </mxCell>
        <mxCell id="XsQoimjce_yVpQ9bQ-w0-61" style="edgeStyle=none;rounded=0;orthogonalLoop=1;jettySize=auto;html=1;entryX=0.85;entryY=0.142;entryDx=0;entryDy=0;entryPerimeter=0;fontSize=10;startArrow=classic;startFill=1;" edge="1" parent="1" source="XsQoimjce_yVpQ9bQ-w0-14" target="XsQoimjce_yVpQ9bQ-w0-3">
          <mxGeometry relative="1" as="geometry">
            <Array as="points">
              <mxPoint x="690" y="300" />
            </Array>
          </mxGeometry>
        </mxCell>
        <mxCell id="XsQoimjce_yVpQ9bQ-w0-70" value="" style="edgeStyle=none;rounded=0;orthogonalLoop=1;jettySize=auto;html=1;fontSize=10;startArrow=classic;startFill=1;entryX=1;entryY=0.5;entryDx=0;entryDy=0;entryPerimeter=0;" edge="1" parent="1" target="XsQoimjce_yVpQ9bQ-w0-17">
          <mxGeometry relative="1" as="geometry">
            <mxPoint x="700" y="600" as="sourcePoint" />
            <Array as="points">
              <mxPoint x="700" y="715" />
            </Array>
          </mxGeometry>
        </mxCell>
        <mxCell id="XsQoimjce_yVpQ9bQ-w0-14" value="Client" style="sketch=0;outlineConnect=0;fontColor=#232F3E;gradientColor=none;strokeColor=#232F3E;fillColor=#ffffff;dashed=0;verticalLabelPosition=bottom;verticalAlign=top;align=center;html=1;fontSize=12;fontStyle=0;aspect=fixed;shape=mxgraph.aws4.resourceIcon;resIcon=mxgraph.aws4.client;" vertex="1" parent="1">
          <mxGeometry x="651.25" y="490" width="80" height="80" as="geometry" />
        </mxCell>
        <mxCell id="XsQoimjce_yVpQ9bQ-w0-66" value="" style="edgeStyle=none;rounded=0;orthogonalLoop=1;jettySize=auto;html=1;fontSize=10;startArrow=classic;startFill=1;entryX=0;entryY=0.5;entryDx=0;entryDy=0;entryPerimeter=0;" edge="1" parent="1" source="XsQoimjce_yVpQ9bQ-w0-15" target="XsQoimjce_yVpQ9bQ-w0-16">
          <mxGeometry relative="1" as="geometry">
            <mxPoint x="432" y="722" as="targetPoint" />
          </mxGeometry>
        </mxCell>
        <mxCell id="XsQoimjce_yVpQ9bQ-w0-15" value="" style="outlineConnect=0;dashed=0;verticalLabelPosition=bottom;verticalAlign=top;align=center;html=1;shape=mxgraph.aws3.dynamo_db;fillColor=#2E73B8;gradientColor=none;" vertex="1" parent="1">
          <mxGeometry x="270" y="684.75" width="50" height="60" as="geometry" />
        </mxCell>
        <mxCell id="XsQoimjce_yVpQ9bQ-w0-65" value="" style="edgeStyle=none;rounded=0;orthogonalLoop=1;jettySize=auto;html=1;fontSize=10;startArrow=classic;startFill=1;entryX=0;entryY=0.5;entryDx=0;entryDy=0;entryPerimeter=0;" edge="1" parent="1" source="XsQoimjce_yVpQ9bQ-w0-16" target="XsQoimjce_yVpQ9bQ-w0-17">
          <mxGeometry relative="1" as="geometry" />
        </mxCell>
        <mxCell id="XsQoimjce_yVpQ9bQ-w0-16" value="" style="outlineConnect=0;dashed=0;verticalLabelPosition=bottom;verticalAlign=top;align=center;html=1;shape=mxgraph.aws3.lambda;fillColor=#F58534;gradientColor=none;" vertex="1" parent="1">
          <mxGeometry x="420" y="679.75" width="62.5" height="70" as="geometry" />
        </mxCell>
        <mxCell id="XsQoimjce_yVpQ9bQ-w0-17" value="" style="sketch=0;points=[[0,0,0],[0.25,0,0],[0.5,0,0],[0.75,0,0],[1,0,0],[0,1,0],[0.25,1,0],[0.5,1,0],[0.75,1,0],[1,1,0],[0,0.25,0],[0,0.5,0],[0,0.75,0],[1,0.25,0],[1,0.5,0],[1,0.75,0]];outlineConnect=0;fontColor=#232F3E;gradientColor=#FF4F8B;gradientDirection=north;fillColor=#BC1356;strokeColor=#ffffff;dashed=0;verticalLabelPosition=bottom;verticalAlign=top;align=center;html=1;fontSize=12;fontStyle=0;aspect=fixed;shape=mxgraph.aws4.resourceIcon;resIcon=mxgraph.aws4.api_gateway;" vertex="1" parent="1">
          <mxGeometry x="570" y="685.25" width="59.5" height="59.5" as="geometry" />
        </mxCell>
        <mxCell id="XsQoimjce_yVpQ9bQ-w0-38" style="edgeStyle=orthogonalEdgeStyle;rounded=0;orthogonalLoop=1;jettySize=auto;html=1;fontSize=10;" edge="1" parent="1" source="XsQoimjce_yVpQ9bQ-w0-18" target="XsQoimjce_yVpQ9bQ-w0-14">
          <mxGeometry relative="1" as="geometry">
            <mxPoint x="710" y="320" as="targetPoint" />
            <Array as="points">
              <mxPoint x="730" y="515" />
              <mxPoint x="730" y="515" />
            </Array>
          </mxGeometry>
        </mxCell>
        <mxCell id="XsQoimjce_yVpQ9bQ-w0-18" value="" style="sketch=0;outlineConnect=0;fontColor=#232F3E;gradientColor=none;fillColor=#232F3D;strokeColor=none;dashed=0;verticalLabelPosition=bottom;verticalAlign=top;align=center;html=1;fontSize=12;fontStyle=0;aspect=fixed;pointerEvents=1;shape=mxgraph.aws4.users;" vertex="1" parent="1">
          <mxGeometry x="760" y="480" width="90" height="90" as="geometry" />
        </mxCell>
        <mxCell id="XsQoimjce_yVpQ9bQ-w0-22" value="" style="sketch=0;pointerEvents=1;shadow=0;dashed=0;html=1;strokeColor=none;fillColor=#505050;labelPosition=center;verticalLabelPosition=bottom;verticalAlign=top;outlineConnect=0;align=center;shape=mxgraph.office.users.administrator;" vertex="1" parent="1">
          <mxGeometry x="15" y="260" width="40" height="36" as="geometry" />
        </mxCell>
        <mxCell id="XsQoimjce_yVpQ9bQ-w0-32" value="S3 Bucket (HTML, CSS, Python files)" style="text;strokeColor=none;align=center;fillColor=none;html=1;verticalAlign=middle;whiteSpace=wrap;rounded=0;fontSize=10;" vertex="1" parent="1">
          <mxGeometry x="275" y="352" width="70" height="20" as="geometry" />
        </mxCell>
        <mxCell id="XsQoimjce_yVpQ9bQ-w0-33" value="CloudFront Distro&lt;br&gt;(CDN)" style="text;strokeColor=none;align=center;fillColor=none;html=1;verticalAlign=middle;whiteSpace=wrap;rounded=0;fontSize=10;" vertex="1" parent="1">
          <mxGeometry x="430.63" y="342" width="60" height="30" as="geometry" />
        </mxCell>
        <mxCell id="XsQoimjce_yVpQ9bQ-w0-35" value="Route53 (DNS)&lt;br&gt;https://trinatking.com" style="text;strokeColor=none;align=center;fillColor=none;html=1;verticalAlign=middle;whiteSpace=wrap;rounded=0;fontSize=10;" vertex="1" parent="1">
          <mxGeometry x="590" y="333.5" width="60" height="30" as="geometry" />
        </mxCell>
        <mxCell id="XsQoimjce_yVpQ9bQ-w0-64" value="" style="edgeStyle=none;rounded=0;orthogonalLoop=1;jettySize=auto;html=1;fontSize=10;startArrow=none;startFill=0;" edge="1" parent="1" source="XsQoimjce_yVpQ9bQ-w0-37" target="XsQoimjce_yVpQ9bQ-w0-35">
          <mxGeometry relative="1" as="geometry" />
        </mxCell>
        <mxCell id="XsQoimjce_yVpQ9bQ-w0-37" value="" style="outlineConnect=0;dashed=0;verticalLabelPosition=bottom;verticalAlign=top;align=center;html=1;shape=mxgraph.aws3.certificate_manager_2;fillColor=#759C3E;gradientColor=none;fontSize=10;" vertex="1" parent="1">
          <mxGeometry x="591.25" y="400" width="60" height="50" as="geometry" />
        </mxCell>
        <mxCell id="XsQoimjce_yVpQ9bQ-w0-40" value="Certificate Manager (SSL)" style="text;strokeColor=none;align=center;fillColor=none;html=1;verticalAlign=middle;whiteSpace=wrap;rounded=0;fontSize=10;" vertex="1" parent="1">
          <mxGeometry x="588" y="460" width="60" height="30" as="geometry" />
        </mxCell>
        <mxCell id="XsQoimjce_yVpQ9bQ-w0-45" style="edgeStyle=none;rounded=0;orthogonalLoop=1;jettySize=auto;html=1;exitX=0;exitY=0.5;exitDx=0;exitDy=0;fontSize=10;startArrow=classic;startFill=1;" edge="1" parent="1">
          <mxGeometry relative="1" as="geometry">
            <mxPoint x="130" y="295" as="sourcePoint" />
            <mxPoint x="130" y="295" as="targetPoint" />
          </mxGeometry>
        </mxCell>
        <mxCell id="XsQoimjce_yVpQ9bQ-w0-46" value="Site Visitors" style="text;strokeColor=none;align=center;fillColor=none;html=1;verticalAlign=middle;whiteSpace=wrap;rounded=0;fontSize=10;" vertex="1" parent="1">
          <mxGeometry x="775" y="570" width="60" height="30" as="geometry" />
        </mxCell>
        <mxCell id="XsQoimjce_yVpQ9bQ-w0-47" value="DynamoDB Table (stores the visitor count data)" style="text;strokeColor=none;align=center;fillColor=none;html=1;verticalAlign=middle;whiteSpace=wrap;rounded=0;fontSize=10;" vertex="1" parent="1">
          <mxGeometry x="255" y="754.75" width="90" height="30" as="geometry" />
        </mxCell>
        <mxCell id="XsQoimjce_yVpQ9bQ-w0-48" value="Lambda" style="text;strokeColor=none;align=center;fillColor=none;html=1;verticalAlign=middle;whiteSpace=wrap;rounded=0;fontSize=10;" vertex="1" parent="1">
          <mxGeometry x="433.13" y="754.75" width="60" height="30" as="geometry" />
        </mxCell>
        <mxCell id="XsQoimjce_yVpQ9bQ-w0-49" value="APIGW" style="text;strokeColor=none;align=center;fillColor=none;html=1;verticalAlign=middle;whiteSpace=wrap;rounded=0;fontSize=10;" vertex="1" parent="1">
          <mxGeometry x="599.5" y="750" width="60" height="30" as="geometry" />
        </mxCell>
        <mxCell id="XsQoimjce_yVpQ9bQ-w0-51" value="" style="shape=image;imageAspect=0;aspect=fixed;verticalLabelPosition=bottom;verticalAlign=top;fontSize=10;image=data:image/png,iVBORw0KGgoAAAANSUhEUgAAAP4AAADHCAMAAAAOPR4GAAAAw1BMVEX39/dfQ+lAQLL5+fdSMOhXN+nh3vXr6Pb///j///tdQOn7/Pc2NrBrUuq7s/FlZb6Xl888PLFaPOlRL+grK60yMq9YOulUNOjz8vdPK+ijlu/Y0/SFc+zUz/NuVuqmmu/AuPF7ZuuqqtfHx+Pf3+11Xuvs7PPo5fbg3fVlSuqJicppab/HwPJHR7WtovCajO6Bbuy0qvCPf+2Leu1ycsN3YetNTbaMjMsnJ61JIuhdXbybje7MxvJBEeehodPZ2eoaGqrg76PNAAAGMUlEQVR4nO2diULbOhBFLSshXlge2UMppNBS0iUU6ALd//+rnqQ4iXfJaZxYM3N/AI7iuboa2ZLjkEgkEolEIpFIpJRCvu//YJ8KH956iAfAm03OxuG+/4u9yTsKhsFxiHUABD4LRhcvkVaAxGcs6J3jtIAFPmPd0ZmDsAKW+IwNuwgtYI3PWAufBcTxhQU8dnANQAJfWMDkElUKSOELC2CYLCCDL1LAGzwWkMUXAzB5xJIC8vARpYB8fGEBOBYCRfgsaGGwgEJ8OQDn4FNACb6wgBb0XkApvkoBoB8ADT70XoAOXy0E4KYAPb5MAZdQU4AJvrCA9hRmCjDDZwxoCjDFFykAYi/AGB9mL6ACPmNtNgX2AFTCFxVwcQuKvxq+sMBjUM9/Vfw24Tu72RbfRZVthM9vH2/q9kDuX3/26/0Tzqb4B8+jOa+zCrj/+uTppLH4LdaefaitArh/865/etpkfDEJvrqtpwI4vzo8dN1m48sY+FBDDhZF/3Hgus3HFyvB4XzbS2H/z/u+69qBz6QFbPEB4P5YFL1rD76wgC8vtjUA3LnqH7quTfhyALZjAaLovw5c1zZ8YQFbSAFipn+/eu7twt+CBfg3354S8Fbh/2MK4L6a6e3Fl9viDxsuBFYzvc34sh8836QfnCl6S/E3sYDETG87Pgt61SwgivdQ8OWu8J2xBaRnegD4FVJAUdHbjc/YyKQX4I+/lcFbjG+QAnJneij4ul5AwUwPB1/1AooswH/9ufy5B4BflAK4tuh3iT+rDz/XAspm+t3jh/NJtzb8bAoon+l3j+94nYdelU3eavipFKCZ6feA73DvxZuW8QBUxlcpYPEAhIZFv1N8QRNOg3Z9+NICxoKfXxsW/Y7xxe/iXI7MLGATfPEAdAS+/18l+h3iiwroPE5MKmAz/HbD8RcWMNIPAFR8OQBTprUAuPjKAnoaC4CMryygfBIEja9PAcDxVQoosQDw+MoC2kUWgAC/LAVgwC+xABz4hRaABV8u0C6zvQA8+NICMr0ARPhyAF6mLAAVvqiAcBoM8eLLFHAW6wWgw5cWcL5KAfjwVQq4iHoBGPGVBbAhXnxlAa0uXvyoF4AWX6WAi2e8+KICvPspYvzoGya8+Ero8Z93gf+9qfjjH7qG+L/jDz5eN/V7We4dfDLfFd4E/3Dwu8knRnDv59GoNvzT/rsbv6m//UIhv28P9eSb4PdP/jQc3pHdwPGd6bZ4FXxR9A2H54t/j3u3n4zejKmA3/Cil+Jvf3rLATCyAGP806fGF72c93+dH0QDICygq7UAU3wril6mvvVpZty7udO9HGeGP3CbXvQLqdC7PtZYnwJM8EXR1/pN/PYUZf71aWY6C9DjWzDTr7Rc8gSt1cnmwgJGxRagwz/tf7eh6COtV3zdyY+lBYgU0CrcFi/HH3y1o+gjxRe86zNNS1JAKb4FM31SifV+kLCAWa4FlODbVPSRUu2O2OUGYXg/zLGAYnw7ZvqkMt2e2LHGYV4KKMJvfrzPU06zaziMW0A6BeTj2zPTJ5Xb6ytLAXn4FhZ9pPxWZ9wCUr2ALL5dM31SRZ3e7uqKo1QKyODbWfSRihvdiRTwapUCUvjWzfRJlfT581NAAt/eoo9Uus0RTOIWsOgFxPFtnOmT0uzyrFPAshewxrdlTV8m7SZXuhewxLd1pk/KYI8vbgEfjp4X+H8tL/pIJluciV7AXOLzK9uLPpLZDm+sHbg4zICDgDff4BYpwLO/1DMy3t8PRkcATzav8HoDxIsOK73dISzA5oSbo4ovtwzbx6B+/6rv9gSTDiT+zV5tAiPCJ3zCJ3zCJ3zCJ3zCJ3zCJ3zCJ3zCJ3zCJ3wwInzCJ3zCR4nfQ43f6ZoeawwR3+F8bvwBK0B8dZqZ0bHGMPHVUUZfjL9hh4evjjWeGVoARHx1pqnZ5QYw8XMPNESErz/WGDi+Y3S5AWB8aQHzkg9YwePrUwBsfK0FQMfXXG4AH1+lgKJPuDHgl1xugAK/2AKQ4BdZABr8/MsNEOHnXW6ACT/HAnDhZy43wIavLjdYn+iIDz/RC0CIH7cAlPjrXgBS/OVFh2jxFylghBZfWcARYnw43y6TSCQSiUQikUj71/+xUK7uNLir5QAAAABJRU5ErkJggg==;" vertex="1" parent="1">
          <mxGeometry x="33.3" y="300" width="31.7" height="24.83" as="geometry" />
        </mxCell>
        <mxCell id="XsQoimjce_yVpQ9bQ-w0-52" value="" style="aspect=fixed;html=1;points=[];align=center;image;fontSize=12;image=img/lib/azure2/general/Files.svg;" vertex="1" parent="1">
          <mxGeometry x="10" y="300.83" width="21.95" height="24" as="geometry" />
        </mxCell>
        <mxCell id="XsQoimjce_yVpQ9bQ-w0-53" value="GH Repos" style="text;strokeColor=none;align=center;fillColor=none;html=1;verticalAlign=middle;whiteSpace=wrap;rounded=0;fontSize=10;" vertex="1" parent="1">
          <mxGeometry x="5" y="441.5" width="60" height="30" as="geometry" />
        </mxCell>
        <mxCell id="XsQoimjce_yVpQ9bQ-w0-60" value="" style="outlineConnect=0;dashed=0;verticalLabelPosition=bottom;verticalAlign=top;align=center;html=1;shape=mxgraph.aws3.cloud_2;fillColor=#F58534;gradientColor=none;fontSize=10;" vertex="1" parent="1">
          <mxGeometry x="410" y="510" width="45" height="35" as="geometry" />
        </mxCell>
      </root>
    </mxGraphModel>
  </diagram>
</mxfile>
